<svg viewBox="0 0 100 100" xmlns="http://www.w3.org/2000/svg">
  <defs>
    <!-- Gradient for the "B" -->
    <linearGradient id="bGradient" x1="0%" y1="0%" x2="100%" y2="100%">
      <stop offset="0%" style="stop-color:#2563EB;stop-opacity:1" />
      <stop offset="50%" style="stop-color:#06B6D4;stop-opacity:1" />
      <stop offset="100%" style="stop-color:#A3E635;stop-opacity:1" />
    </linearGradient>
    
    <!-- Mask to create transparent cutouts in the B -->
    <mask id="bMask">
      <!-- White area shows, black area hides -->
      <rect x="0" y="0" width="100" height="100" fill="white"/>
      <!-- Black cutouts for the inner B shapes -->
      <path d="M25 30 L48 30 Q55 30 55 37 Q55 44 48 44 L25 44 Z" fill="black"/>
      <path d="M25 56 L50 56 Q57 56 57 63 Q57 70 50 70 L25 70 Z" fill="black"/>
    </mask>
  </defs>
  
  <!-- Single B icon centered -->
  <g transform="translate(10, 5)">
    <!-- Main "B" shape with gradient and transparent cutouts -->
    <path d="M10 10 L10 80 L50 80 Q70 80 70 65 Q70 53 60 50 Q70 47 70 32 Q70 17 50 17 L10 17 Z" 
          fill="url(#bGradient)" 
          mask="url(#bMask)"/>
    
    <!-- Connection dots representing digital connectivity -->
    <circle cx="80" cy="35" r="4" fill="#2563EB" opacity="0.8"/>
    <circle cx="92" cy="45" r="3" fill="#06B6D4" opacity="0.7"/>
    <circle cx="85" cy="55" r="2.5" fill="#A3E635" opacity="0.9"/>
    
    <!-- Connecting lines -->
    <line x1="72" y1="42" x2="78" y2="37" stroke="#2563EB" stroke-width="2" opacity="0.6"/>
    <line x1="72" y1="48" x2="90" y2="44" stroke="#06B6D4" stroke-width="1.8" opacity="0.5"/>
    <line x1="72" y1="55" x2="83" y2="56" stroke="#A3E635" stroke-width="2" opacity="0.7"/>
  </g>
</svg>